<?xml version="1.0" encoding="UTF-8"?><svg id="Capa_1" xmlns="http://www.w3.org/2000/svg" viewBox="0 0 323.64 330"><path d="M280.64,105.64l-84.86,36.96,83.48-64.28-80.88-52.05-29.6,119.87V17.76h-10.84v128.29l-28.62-119.79-80.88,52.05,84.74,65.25-90.18-37.85v86.15l92.62-24.16-87.23,54.71,85.99,66.12,23.56-118.22v141.91h10.84v-142.33l28.01,113.41,82.63-60.84-86.68-54.37,87.9,23.8v-86.28ZM61.31,78.86l63.29-40.73,27.28,110.48L61.31,78.86ZM50.42,116.88l96.07,40.32-96.07,25.07v-65.38ZM129.55,275.46l-68.18-52.42,91.24-57.23-23.06,109.65ZM203.1,38.13l63.29,40.73-90.58,69.74,27.28-110.48ZM266.24,222.98l-64.9,47.79-25.86-104.72,90.76,56.93ZM273.22,182.22l-92.38-25.02,92.38-40.24v65.25Z"/></svg>